<?xml version="1.0" encoding="UTF-8"?>
<svg width="16px" height="16px" viewBox="0 0 16 16" version="1.1" xmlns="http://www.w3.org/2000/svg" xmlns:xlink="http://www.w3.org/1999/xlink">
    <title>添加</title>
    <g id="页面-1" stroke="none" stroke-width="1" fill="none" fill-rule="evenodd">
        <g id="协议-协议管理-协议头管理备份" transform="translate(-931.000000, -528.000000)" fill="#00C2FF" fill-rule="nonzero">
            <g id="编组-9备份" transform="translate(692.000000, 136.000000)">
                <g id="添加" transform="translate(239.000000, 392.000000)">
                    <path d="M8.00000975,15.8571618 C3.66089756,15.8571618 0.142857752,12.3391219 0.142857752,8.00000975 C0.142857752,3.66089756 3.66089756,0.142857752 8.00000975,0.142857752 C12.3391219,0.142857752 15.8571618,3.66089756 15.8571618,8.00000975 C15.8571618,12.3391219 12.3391219,15.8571618 8.00000975,15.8571618 Z M8.00000975,2.10714575 C4.74616668,2.10714575 2.10714575,4.74616668 2.10714575,8.00000975 C2.10714575,11.2538528 4.74616668,13.8928738 8.00000975,13.8928738 C11.2538528,13.8928738 13.8928738,11.2538528 13.8928738,8.00000975 C13.8928738,4.74616668 11.2538528,2.10714575 8.00000975,2.10714575 Z M10.9464418,8.98215375 L8.98215375,8.98215375 L8.98215375,10.9464418 C8.98215375,11.4895674 8.54313538,11.9285858 8.00000975,11.9285858 C7.45786626,11.9285858 7.01786575,11.4895674 7.01786575,10.9464418 L7.01786575,8.98215375 L5.05357775,8.98215375 C4.51143426,8.98215375 4.07143375,8.54313538 4.07143375,8.00000975 C4.07143375,7.45786626 4.51143426,7.01786575 5.05357775,7.01786575 L7.01786575,7.01786575 L7.01786575,5.05357775 C7.01786575,4.51143426 7.45786626,4.07143375 8.00000975,4.07143375 C8.54313538,4.07143375 8.98215375,4.51143426 8.98215375,5.05357775 L8.98215375,7.01786575 L10.9464418,7.01786575 C11.4895674,7.01786575 11.9285858,7.45786626 11.9285858,8.00000975 C11.9285858,8.54313538 11.4895674,8.98215375 10.9464418,8.98215375 Z" id="形状"></path>
                </g>
            </g>
        </g>
    </g>
</svg>