<svg xmlns="http://www.w3.org/2000/svg" width="133.369" height="108.117" viewBox="0 0 133.369 108.117">
  <g id="组_528" data-name="组 528" transform="translate(-696.245 -265.609)">
    <g id="组_299" data-name="组 299" transform="translate(771.245 278.609)">
      <path id="路径_94" data-name="路径 94" d="M-75,385.546v.27l7.412,11.208L-75,408.23v.454h19.352V385.546Zm133.369-.21v.275l-7.413,11.411,7.413,11.409v.463H39.014V385.336Zm0,0" transform="translate(0 -316.512)" fill="#48b24c"/>
      <path id="路径_95" data-name="路径 95" d="M-14.211,88.3H92.434v26.754H-14.211ZM19.683,23.346S20,25.726,21.337,26.7s3.7.537,3.7.537l-2.676,2.608.632,3.684-3.308-1.739-3.308,1.739.631-3.684-2.675-2.608,3.7-.537Zm18.931-4.627,1.654,3.352,3.7.537-2.675,2.609.632,3.683-3.308-1.739L35.306,28.9l.631-3.683-2.675-2.609,3.7-.537ZM58.39,23.557l1.655,3.352,3.7.537-2.674,2.609.631,3.682L58.39,32l-3.308,1.739.631-3.682-2.675-2.609,3.7-.537ZM6.221,34.915l1.654,3.353,3.7.537L8.9,41.413,9.53,45.1,6.221,43.358,2.913,45.1l.632-3.683L.869,38.8l3.7-.537Zm66.684.21,1.655,3.352,3.7.537-2.677,2.61.631,3.682-3.307-1.739L69.6,45.307l.632-3.682-2.676-2.61,3.7-.537Zm0,0" transform="translate(-48.034 -25.203)" fill="#5fce63"/>
      <path id="路径_96" data-name="路径 96" d="M38.45-13A54.059,54.059,0,1,0,92.508,41.059,54.059,54.059,0,0,0,38.45-13Zm0,105.312A50.833,50.833,0,1,1,89.283,41.479,50.832,50.832,0,0,1,38.45,92.312Zm0,0" transform="translate(-47.191)" fill="#5fce63"/>
      <text id="实时信用分" transform="translate(-49.245 82.391)" fill="#fff" font-size="16" font-family="PingFangSC-Medium, PingFang SC" font-weight="500" letter-spacing="0.02em"><tspan x="0" y="0">实时信用分</tspan></text>
    </g>
  </g>
</svg>
