<svg xmlns="http://www.w3.org/2000/svg" xmlns:xlink="http://www.w3.org/1999/xlink" width="132.171" height="73.005" viewBox="0 0 132.171 73.005">
  <defs>
    <linearGradient id="linear-gradient" x1="0.5" y1="-0.05" x2="0.5" y2="0.391" gradientUnits="objectBoundingBox">
      <stop offset="0" stop-color="#f0f6ff"/>
      <stop offset="1" stop-color="#fff"/>
    </linearGradient>
  </defs>
  <g id="组_5" data-name="组 5" transform="translate(-502 -359)">
    <path id="椭圆形" d="M66.085,0c36.5,0,66.085,15.074,66.085,33.668,0,8.033-5.161,15.166-14.593,21.088-7.594.031-88.1.027-103.034-.014C5.547,49.111,0,41.719,0,33.668,0,15.074,29.587,0,66.085,0Z" transform="translate(502 377.228)" fill="url(#linear-gradient)"/>
    <ellipse id="椭圆形-2" data-name="椭圆形" cx="22.028" cy="4.518" rx="22.028" ry="4.518" transform="translate(546.057 422.077)" fill="#44c0ff" opacity="0.2"/>
    <path id="路径_1" data-name="路径 1" d="M171.288,107.808c-8.353,0-15.326-1.733-17.054-4.048a1.872,1.872,0,0,0-.421,1.117c0,2.852,7.824,5.164,17.475,5.164s17.475-2.312,17.475-5.164a1.873,1.873,0,0,0-.421-1.117c-1.729,2.315-8.7,4.048-17.054,4.048Z" transform="translate(396.954 293.314)" fill="#4aa2fa"/>
    <path id="路径_2" data-name="路径 2" d="M171.288,71.642c9.652,0,17.475-2.851,17.475-6.368s-7.824-6.368-17.475-6.368-17.475,2.851-17.475,6.368,7.824,6.368,17.475,6.368Z" transform="translate(396.954 309.731)" fill="#4aa2fa"/>
    <path id="路径_3" data-name="路径 3" d="M163.572,83.583V81.352c-4.682-.684-8.184-1.967-9.338-3.513a1.87,1.87,0,0,0-.421,1.116c0,2.032,3.983,3.785,9.759,4.628Z" transform="translate(396.954 302.802)" fill="#4aa2fa"/>
    <path id="路径_4" data-name="路径 4" d="M193.549,81.352v2.232c5.776-.843,9.759-2.6,9.759-4.628a1.87,1.87,0,0,0-.421-1.116c-1.154,1.546-4.656,2.829-9.338,3.513Z" transform="translate(382.41 302.802)" fill="#4aa2fa"/>
    <path id="路径_5" data-name="路径 5" d="M193.549,90.075v2.232c5.776-.843,9.759-2.6,9.759-4.628a1.872,1.872,0,0,0-.421-1.116c-1.154,1.546-4.656,2.829-9.338,3.513Z" transform="translate(382.41 299.609)" fill="#4aa2fa"/>
    <path id="路径_6" data-name="路径 6" d="M163.572,92.306V90.075c-4.682-.684-8.184-1.967-9.338-3.513a1.872,1.872,0,0,0-.421,1.116c0,2.033,3.983,3.785,9.759,4.628Z" transform="translate(396.954 299.609)" fill="#4aa2fa"/>
    <path id="路径_7" data-name="路径 7" d="M163.572,100.974V98.743c-4.682-.684-8.184-1.967-9.338-3.513a1.872,1.872,0,0,0-.421,1.116c0,2.033,3.983,3.785,9.759,4.628Z" transform="translate(396.954 296.436)" fill="#4aa2fa"/>
    <path id="路径_8" data-name="路径 8" d="M193.549,98.743v2.232c5.776-.843,9.759-2.6,9.759-4.628a1.872,1.872,0,0,0-.421-1.116c-1.154,1.546-4.656,2.829-9.338,3.513Z" transform="translate(382.41 296.436)" fill="#4aa2fa"/>
    <path id="路径_9" data-name="路径 9" d="M183.419,90.755a3.661,3.661,0,0,0-1.065-1.064,6.774,6.774,0,0,0-1.489-.736c-.559-.2-1.112-.377-1.669-.541l.133-3.559a3.039,3.039,0,0,1,.645.245l.458.244a4.392,4.392,0,0,0,.631.328,1.934,1.934,0,0,0,.767.143,1.459,1.459,0,0,0,1.033-.3,1.008,1.008,0,0,0,.309-.765.978.978,0,0,0-.24-.544,3.049,3.049,0,0,0-.715-.633,5.944,5.944,0,0,0-1.183-.594,7.954,7.954,0,0,0-1.653-.42l.054-1.021a.653.653,0,0,0-.338-.594,1.387,1.387,0,0,0-1.449,0,.65.65,0,0,0-.335.594l-.029.92a6.31,6.31,0,0,0-3.709,1.136,3.237,3.237,0,0,0-1.319,2.668,2.551,2.551,0,0,0,.416,1.473,3.771,3.771,0,0,0,1.1,1.053,7.573,7.573,0,0,0,1.532.747c.562.2,1.136.4,1.707.573l-.134,3.621a4.22,4.22,0,0,1-1.584-.676,5.627,5.627,0,0,0-.647-.377,2.039,2.039,0,0,0-.808-.2q-1.4,0-1.4.962a1.2,1.2,0,0,0,.416.888,3.8,3.8,0,0,0,1.064.7,8.559,8.559,0,0,0,1.423.5,13.938,13.938,0,0,0,1.478.306l-.022.9a.648.648,0,0,0,.335.6,1.457,1.457,0,0,0,1.453,0,.648.648,0,0,0,.335-.6l.028-.8a6.547,6.547,0,0,0,3.577-1.115,3.062,3.062,0,0,0,1.289-2.567A2.715,2.715,0,0,0,183.419,90.755ZM177.1,87.738a4.515,4.515,0,0,1-1.214-.643,1.135,1.135,0,0,1-.46-.932,1.269,1.269,0,0,1,.486-1.042,2.4,2.4,0,0,1,1.293-.47ZM180.23,93.4a2.46,2.46,0,0,1-1.221.45l.108-3.027a4.036,4.036,0,0,1,1.128.665,1.168,1.168,0,0,1,.432.909A1.2,1.2,0,0,1,180.23,93.4Z" transform="translate(390.203 301.739)" fill="#9fc8fe"/>
    <ellipse id="椭圆_1" data-name="椭圆 1" cx="7.093" cy="7.093" rx="7.093" ry="7.093" transform="translate(542.691 367.638)" fill="#fff" opacity="0.3"/>
    <g id="组_1" data-name="组 1" transform="translate(536.756 359)">
      <path id="路径_2-2" data-name="路径 2" d="M256.084,212.673A30.014,30.014,0,1,0,286.1,182.659,30.014,30.014,0,0,0,256.084,212.673Z" transform="translate(-253.732 -182.659)" fill="#ebf5ff"/>
      <path id="路径_3-2" data-name="路径 3" d="M295.553,255.232c-7.693,0-14.116-1.6-15.708-3.728a1.724,1.724,0,0,0-.388,1.028c0,2.627,7.206,4.756,16.1,4.756s16.1-2.129,16.1-4.756a1.724,1.724,0,0,0-.388-1.028c-1.592,2.132-8.015,3.728-15.708,3.728Z" transform="translate(-263.457 -211.303)" fill="#4aa2fa" opacity="0.45"/>
      <path id="路径_4-2" data-name="路径 4" d="M295.553,218.38c8.89,0,16.1-2.626,16.1-5.865s-7.206-5.864-16.1-5.864-16.1,2.626-16.1,5.865,7.206,5.864,16.1,5.864Z" transform="translate(-263.457 -192.641)" fill="#4aa2fa" opacity="0.45"/>
      <path id="路径_5-2" data-name="路径 5" d="M288.446,230.873v-2.055c-4.313-.629-7.537-1.811-8.6-3.236a1.724,1.724,0,0,0-.388,1.029c0,1.871,3.669,3.486,8.989,4.262Z" transform="translate(-263.457 -200.518)" fill="#4aa2fa" opacity="0.45"/>
      <path id="路径_6-2" data-name="路径 6" d="M319.193,228.818v2.055c5.32-.776,8.989-2.391,8.989-4.262a1.724,1.724,0,0,0-.388-1.029c-1.063,1.424-4.288,2.606-8.6,3.236Z" transform="translate(-279.99 -200.518)" fill="#4aa2fa" opacity="0.45"/>
      <path id="路径_7-2" data-name="路径 7" d="M319.193,237.541V239.6c5.32-.776,8.989-2.391,8.989-4.263a1.724,1.724,0,0,0-.388-1.029c-1.063,1.424-4.288,2.606-8.6,3.236Z" transform="translate(-279.99 -204.147)" fill="#4aa2fa" opacity="0.45"/>
      <path id="路径_8-2" data-name="路径 8" d="M288.446,239.6v-2.055c-4.313-.63-7.537-1.812-8.6-3.236a1.725,1.725,0,0,0-.388,1.029c0,1.871,3.669,3.487,8.989,4.263Z" transform="translate(-263.457 -204.147)" fill="#4aa2fa" opacity="0.45"/>
      <path id="路径_9-2" data-name="路径 9" d="M288.446,248.265V246.21c-4.313-.63-7.537-1.812-8.6-3.236a1.722,1.722,0,0,0-.388,1.028c0,1.872,3.669,3.487,8.989,4.263Z" transform="translate(-263.457 -207.754)" fill="#4aa2fa" opacity="0.45"/>
      <path id="路径_10" data-name="路径 10" d="M319.193,246.21v2.055c5.32-.776,8.989-2.391,8.989-4.263a1.723,1.723,0,0,0-.388-1.028c-1.063,1.424-4.288,2.605-8.6,3.236Z" transform="translate(-279.99 -207.754)" fill="#4aa2fa" opacity="0.45"/>
      <path id="路径_11" data-name="路径 11" d="M308.182,237.708a3.371,3.371,0,0,0-.98-.98,6.267,6.267,0,0,0-1.371-.679c-.515-.182-1.025-.347-1.537-.5l.123-3.278a2.792,2.792,0,0,1,.594.227l.422.224a4.05,4.05,0,0,0,.582.3,1.781,1.781,0,0,0,.707.131,1.343,1.343,0,0,0,.952-.274.927.927,0,0,0,.285-.7.9.9,0,0,0-.221-.5,2.779,2.779,0,0,0-.658-.583,5.5,5.5,0,0,0-1.09-.547,7.289,7.289,0,0,0-1.523-.387l.05-.941a.6.6,0,0,0-.311-.547,1.274,1.274,0,0,0-1.334,0,.6.6,0,0,0-.309.547l-.026.847a5.814,5.814,0,0,0-3.417,1.047,2.98,2.98,0,0,0-1.215,2.458,2.35,2.35,0,0,0,.383,1.356,3.464,3.464,0,0,0,1.017.969,6.978,6.978,0,0,0,1.411.688c.518.188,1.047.364,1.572.527l-.124,3.335a3.881,3.881,0,0,1-1.459-.622,5.013,5.013,0,0,0-.6-.347,1.866,1.866,0,0,0-.744-.18q-1.288,0-1.286.886a1.1,1.1,0,0,0,.383.818,3.5,3.5,0,0,0,.979.642,7.891,7.891,0,0,0,1.311.462,12.805,12.805,0,0,0,1.361.282l-.021.83a.6.6,0,0,0,.309.555,1.342,1.342,0,0,0,1.338,0,.6.6,0,0,0,.309-.555l.026-.736a6.029,6.029,0,0,0,3.295-1.027,2.819,2.819,0,0,0,1.187-2.364A2.5,2.5,0,0,0,308.182,237.708Zm-5.818-2.779a4.193,4.193,0,0,1-1.118-.593,1.045,1.045,0,0,1-.424-.858,1.172,1.172,0,0,1,.447-.961,2.222,2.222,0,0,1,1.191-.433Zm2.881,5.22a2.272,2.272,0,0,1-1.124.415l.1-2.788a3.731,3.731,0,0,1,1.039.612,1.077,1.077,0,0,1,.4.837A1.106,1.106,0,0,1,305.245,240.149Z" transform="translate(-271.132 -201.726)" fill="#9fc8fe"/>
      <g id="组_3" data-name="组 3" transform="translate(0 1.227)">
        <path id="路径_17" data-name="路径 17" d="M255.56,207.511l.826,2.678,2.678.826-2.678.826-.826,2.678-.826-2.678-2.678-.826,2.678-.826Z" transform="translate(-252.056 -194.227)" fill="#4aa2fa"/>
        <path id="路径_18" data-name="路径 18" d="M325.669,184.761l1.147,3.72,3.72,1.147-3.72,1.147-1.147,3.72-1.147-3.72-3.72-1.147,3.72-1.147Z" transform="translate(-280.659 -184.761)" fill="#4aa2fa"/>
      </g>
      <ellipse id="椭圆_2" data-name="椭圆 2" cx="6.533" cy="6.533" rx="6.533" ry="6.533" transform="translate(8.561 13.087)" fill="#fff" opacity="0.3"/>
    </g>
  </g>
</svg>
