<?xml version="1.0" standalone="no"?><!DOCTYPE svg PUBLIC "-//W3C//DTD SVG 1.1//EN" "http://www.w3.org/Graphics/SVG/1.1/DTD/svg11.dtd"><svg t="1598428219023" class="icon" viewBox="0 0 1024 1024" version="1.1" xmlns="http://www.w3.org/2000/svg" p-id="10446" xmlns:xlink="http://www.w3.org/1999/xlink" width="200" height="200"><defs><style type="text/css"></style></defs><path d="M320.5 228.6c36.9 0 71.5 14.4 97.6 40.4 26.1 26.1 40.4 60.7 40.4 97.6s-14.4 71.5-40.4 97.6c-26.1 26.1-60.7 40.4-97.6 40.4s-71.5-14.4-97.6-40.4c-26.1-26.1-40.4-60.7-40.4-97.6s14.4-71.5 40.4-97.6c26.1-26 60.7-40.4 97.6-40.4m0-64c-111.6 0-202 90.4-202 202s90.4 202 202 202 202-90.4 202-202-90.5-202-202-202z" fill="#1296db" p-id="10447"></path><path d="M609 857.1c-17.7 0-32-14.3-32-32 0-141.4-115.1-256.5-256.5-256.5S64 683.6 64 825.1c0 17.7-14.3 32-32 32s-32-14.3-32-32C0 739.5 33.3 659 93.9 598.4c60.5-60.5 141-93.9 226.6-93.9s166.1 33.3 226.6 93.9c60.5 60.5 93.9 141 93.9 226.6 0 17.7-14.4 32.1-32 32.1z" fill="#1296db" p-id="10448"></path><path d="M992 320H732c-17.6 0-32-14.4-32-32s14.4-32 32-32h260c17.6 0 32 14.4 32 32s-14.4 32-32 32zM992 576.1H732c-17.6 0-32-14.4-32-32s14.4-32 32-32h260c17.6 0 32 14.4 32 32s-14.4 32-32 32zM992 831.9H732c-17.6 0-32-14.4-32-32s14.4-32 32-32h260c17.6 0 32 14.4 32 32s-14.4 32-32 32z" fill="#1296db" p-id="10449"></path></svg>