<?xml version="1.0" encoding="UTF-8"?>
<svg width="16px" height="16px" viewBox="0 0 16 16" version="1.1" xmlns="http://www.w3.org/2000/svg" xmlns:xlink="http://www.w3.org/1999/xlink">
    <title>删  除</title>
    <g id="页面-1" stroke="none" stroke-width="1" fill="none" fill-rule="evenodd">
        <g id="协议-协议管理-协议头管理备份" transform="translate(-1180.000000, -336.000000)" fill-rule="nonzero">
            <g id="编组-9备份" transform="translate(692.000000, 136.000000)">
                <g id="删--除" transform="translate(488.000000, 200.000000)">
                    <path d="M2.13906706,7.90070571 L2.13906706,7.90070662 C2.13906706,11.2262053 4.7314607,13.9220678 7.92935157,13.9220678 C11.1272424,13.9220678 13.7196361,11.2262053 13.7196361,7.90070662 L13.7196361,7.90070662 C13.7196361,4.57520795 11.1272424,1.87934544 7.92935157,1.87934544 C4.7314607,1.87934544 2.13906706,4.57520795 2.13906706,7.90070662 L2.13906706,7.90070571 Z" id="路径" fill="#FFFFFF"></path>
                    <path d="M8.01910862,0.0975716267 C3.65920772,0.0975716267 0.0937521778,3.66493689 0.0937521778,8.02292807 C0.0937521778,12.3809193 3.66111744,15.9482845 8.01910862,15.9482845 C12.3770998,15.9482845 15.9444651,12.3809193 15.9444651,8.02292807 C15.9444651,3.66493689 12.3790095,0.0975716267 8.01910862,0.0975716267 Z M11.2885569,11.391682 C11.0899455,11.5902933 10.6946326,11.5902933 10.4960212,11.391682 L7.91980295,8.81737344 L5.34358468,11.391682 C5.14497333,11.5902933 4.74966037,11.5902933 4.55104903,11.391682 C4.35243769,11.1930706 4.35243769,10.7977577 4.55104903,10.5991463 L7.12726731,8.02292807 L4.6503547,5.54792519 C4.45174336,5.34931385 4.45174336,4.95400089 4.6503547,4.75538955 C4.84896604,4.5567782 5.244279,4.5567782 5.44289035,4.75538955 L8.01910862,7.3296981 L10.4960212,4.75347982 C10.6946326,4.55486848 11.0899455,4.55486848 11.2885569,4.75347982 C11.4871682,4.95209116 11.4871682,5.34740412 11.2885569,5.54601547 L8.7123386,8.12223374 L11.2885569,10.698452 C11.5864739,10.7977577 11.5864739,11.1949804 11.2885569,11.391682 L11.2885569,11.391682 Z" id="形状" fill="#FF6060"></path>
                </g>
            </g>
        </g>
    </g>
</svg>