<svg xmlns="http://www.w3.org/2000/svg" xmlns:xlink="http://www.w3.org/1999/xlink" width="132.171" height="72.892" viewBox="0 0 132.171 72.892">
  <defs>
    <linearGradient id="linear-gradient" x1="0.5" y1="-0.05" x2="0.5" y2="0.391" gradientUnits="objectBoundingBox">
      <stop offset="0" stop-color="#f0f6ff"/>
      <stop offset="1" stop-color="#fff"/>
    </linearGradient>
    <linearGradient id="linear-gradient-2" x1="0.5" x2="0.5" y2="1" gradientUnits="objectBoundingBox">
      <stop offset="0" stop-color="#3b5cfc" stop-opacity="0.2"/>
      <stop offset="0.705" stop-color="#a1abda" stop-opacity="0.02"/>
      <stop offset="1" stop-color="#ccc" stop-opacity="0"/>
    </linearGradient>
  </defs>
  <g id="组_6" data-name="组 6" transform="translate(-717 -349.113)">
    <path id="椭圆形" d="M66.085,0c36.5,0,66.085,15.074,66.085,33.668,0,8.033-5.161,15.166-14.593,21.088-7.594.031-88.1.027-103.034-.014C5.547,49.111,0,41.719,0,33.668,0,15.074,29.587,0,66.085,0Z" transform="translate(717 367.228)" fill="url(#linear-gradient)"/>
    <ellipse id="椭圆形-2" data-name="椭圆形" cx="22.028" cy="4.518" rx="22.028" ry="4.518" transform="translate(761.057 411.077)" fill="#44c0ff" opacity="0.2"/>
    <ellipse id="椭圆_3" data-name="椭圆 3" cx="7.093" cy="7.093" rx="7.093" ry="7.093" transform="translate(757.691 357.638)" fill="#fff" opacity="0.3"/>
    <g id="人脸" transform="translate(260.948 138.05)">
      <g id="人像" transform="translate(503.123 216.54)" opacity="0.451">
        <g id="人像-2" data-name="人像" transform="translate(0.163 0.25)">
          <path id="路径_19" data-name="路径 19" d="M206.477,92.925c0,2.02,2.822,2.742,8.437,3.175,3.254.259,6.364.317,10.8.317s7.544-.058,10.8-.317c5.586-.433,8.437-1.155,8.437-3.175,0-4.329-7.228-8.311-15.118-9.87l.777.895-.317-4.185-.662,1.01c2.793-.923,4.406-2.857,5.7-6.234l-.662.606a5.436,5.436,0,0,0,3.139-2.366,4.878,4.878,0,0,0-1.181-6.753,4.329,4.329,0,0,0-.634-.317l-.374.923h.979c0-4.3-.634-7.013-2.3-8.889l-.72.664.432.895c1.267-.606,2.016-1.472,1.238-2.568a5.544,5.544,0,0,0-1.67-1.414,7.884,7.884,0,0,0-1.209-.606,3.257,3.257,0,0,0-.547-.231l.461,1.472c.058-.087.115-.2.2-.347a1.921,1.921,0,0,0,.173-.981c-.115-1.01-1.008-1.529-2.361-1.529-1.324,0-2.908.779-4.665,2.049l.576.808.029-.981H225.4c-8.379,0-11.2,3.117-11.23,11.544h.979l-.317-.924a4.1,4.1,0,0,0-.806.375,4.878,4.878,0,0,0-1.181,6.753,5.4,5.4,0,0,0,3.254,2.4l-.691-.606c1.469,3.867,2.851,5.57,5.817,6.349l-.749-.981-.144,4.184.806-.923c-7.775,1.414-14.657,5.339-14.657,9.783Z" transform="translate(-206.477 -53.099)"/>
        </g>
        <path id="Color_Overlay" data-name="Color Overlay" d="M8.524,43.512C2.851,43.074,0,42.344,0,40.3c0-4.346,6.495-8.2,14.022-9.747l.092-2.7c-2.362-.842-3.632-2.477-4.918-5.727A5.561,5.561,0,0,1,6.43,19.858a4.939,4.939,0,0,1,1.193-6.833l.153-.085C7.945,4.894,10.863,1.9,19.115,1.9h.479A8.482,8.482,0,0,1,24.061,0c1.367,0,2.269.526,2.386,1.548a2.074,2.074,0,0,1,.007.214,7.768,7.768,0,0,1,.924.487,5.621,5.621,0,0,1,1.688,1.431,1.338,1.338,0,0,1-.253,1.964c1.095,1.734,1.564,4.079,1.616,7.42l.034.019a4.941,4.941,0,0,1,1.193,6.833,5.551,5.551,0,0,1-2.681,2.233c-1.16,2.846-2.59,4.612-4.856,5.582l.207,2.732c7.682,1.672,14.546,5.59,14.546,9.836,0,2.044-2.881,2.774-8.525,3.212-3.288.263-6.43.321-10.911.321S11.812,43.774,8.524,43.512ZM24.382,31.218ZM14.9,28.093ZM9.717,22.282ZM30.433,13.7ZM8.758,13.579Z" transform="translate(0 0)" fill="#4aa2fa"/>
      </g>
      <rect id="矩形_32" data-name="矩形 32" width="59.399" height="0.476" transform="translate(492.699 226.477)" fill="#108ee9"/>
      <rect id="矩形_32_拷贝" data-name="矩形 32 拷贝" width="59.399" height="38.488" transform="translate(492.699 226.255)" fill="url(#linear-gradient-2)"/>
      <rect id="圆角矩形_1_拷贝_2" data-name="圆角矩形 1 拷贝 2" width="5.624" height="0.954" rx="0.46" transform="translate(492 211.063)" fill="#108ee9"/>
      <rect id="圆角矩形_1_拷贝_2-2" data-name="圆角矩形 1 拷贝 2" width="0.954" height="5.594" rx="0.46" transform="translate(492 211.762)" fill="#108ee9"/>
      <rect id="圆角矩形_1_拷贝_3" data-name="圆角矩形 1 拷贝 3" width="5.594" height="0.954" rx="0.46" transform="translate(547.203 211.063)" fill="#108ee9"/>
      <rect id="圆角矩形_1_拷贝_3-2" data-name="圆角矩形 1 拷贝 3" width="0.921" height="5.594" rx="0.45" transform="translate(551.876 211.762)" fill="#108ee9"/>
      <rect id="圆角矩形_1_拷贝_2-3" data-name="圆角矩形 1 拷贝 2" width="5.624" height="0.954" rx="0.46" transform="translate(492 264.519)" fill="#108ee9"/>
      <rect id="圆角矩形_1_拷贝_2-4" data-name="圆角矩形 1 拷贝 2" width="0.954" height="5.594" rx="0.46" transform="translate(492 259.148)" fill="#108ee9"/>
      <rect id="圆角矩形_1_拷贝_3-3" data-name="圆角矩形 1 拷贝 3" width="5.594" height="0.954" rx="0.46" transform="translate(547.203 264.519)" fill="#108ee9"/>
      <rect id="圆角矩形_1_拷贝_3-4" data-name="圆角矩形 1 拷贝 3" width="0.921" height="5.594" rx="0.45" transform="translate(551.876 259.148)" fill="#108ee9"/>
    </g>
  </g>
</svg>
