<?xml version="1.0" standalone="no"?><!DOCTYPE svg PUBLIC "-//W3C//DTD SVG 1.1//EN" "http://www.w3.org/Graphics/SVG/1.1/DTD/svg11.dtd"><svg class="icon" width="70px" height="70.00px" viewBox="0 0 1024 1024" version="1.1" xmlns="http://www.w3.org/2000/svg"><path d="M1024 512c0 282.752-229.248 512-512 512S0 794.752 0 512 229.248 0 512 0s512 229.248 512 512z m-512 317.781333a52.949333 52.949333 0 1 0 0-105.898666 52.949333 52.949333 0 0 0 0 105.898666z m0-610.346666c-30.293333 0-54.869333 24.533333-54.869333 54.869333v329.130667a54.869333 54.869333 0 0 0 109.738666 0V274.304c0-30.293333-24.576-54.869333-54.869333-54.869333z" fill="#0068f6" /></svg>