<?xml version="1.0" standalone="no"?><!DOCTYPE svg PUBLIC "-//W3C//DTD SVG 1.1//EN" "http://www.w3.org/Graphics/SVG/1.1/DTD/svg11.dtd"><svg class="icon" width="120px" height="120.00px" viewBox="0 0 1024 1024" version="1.1" xmlns="http://www.w3.org/2000/svg"><path d="M739.896889 426.666667a227.555556 227.555556 0 1 0-455.111111 0 170.666667 170.666667 0 1 0 0 341.333333v56.888889a227.555556 227.555556 0 0 1-52.337778-449.080889 284.558222 284.558222 0 0 1 559.786667 0 227.669333 227.669333 0 0 1-52.337778 449.080889v-56.888889a170.666667 170.666667 0 0 0 0-341.333333z m-455.111111 341.333333h113.777778v56.888889h-113.777778v-56.888889z m341.333333 0h113.777778v56.888889h-113.777778v-56.888889z" fill="#ffffff" /><path d="M536.064 580.608v296.049778a28.842667 28.842667 0 0 1-28.444444 28.615111 28.842667 28.842667 0 0 1-28.444445-28.615111v-296.049778l-32.085333 32.085333a28.615111 28.615111 0 0 1-48.526222-20.138666c0-7.566222 2.958222-14.791111 8.305777-20.081778l80.782223-80.782222a27.875556 27.875556 0 0 1 20.024888-8.135111 26.737778 26.737778 0 0 1 19.911112 8.078222l80.782222 80.839111a28.615111 28.615111 0 0 1-20.195556 48.526222 28.103111 28.103111 0 0 1-20.024889-8.305778l-32.085333-32.085333z" fill="#ffffff" /></svg>