<svg xmlns="http://www.w3.org/2000/svg" xmlns:xlink="http://www.w3.org/1999/xlink" width="97.26" height="100" viewBox="0 0 97.26 100">
  <defs>
    <clipPath id="clip-path">
      <rect id="矩形_7" data-name="矩形 7" width="97.26" height="100" transform="translate(-318 281)" fill="#fff" stroke="#707070" stroke-width="1"/>
    </clipPath>
    <linearGradient id="linear-gradient" x1="0.5" x2="0.5" y2="1" gradientUnits="objectBoundingBox">
      <stop offset="0" stop-color="#f3f5f9"/>
      <stop offset="1" stop-color="#f0f6ff" stop-opacity="0"/>
    </linearGradient>
    <linearGradient id="linear-gradient-6" x1="0.5" x2="0.5" y2="1" gradientUnits="objectBoundingBox">
      <stop offset="0" stop-color="#67d4ff"/>
      <stop offset="1" stop-color="#009aff"/>
    </linearGradient>
    <linearGradient id="linear-gradient-9" x1="0.5" x2="0.5" y2="1" gradientUnits="objectBoundingBox">
      <stop offset="0" stop-color="#c7efff"/>
      <stop offset="1" stop-color="#65d3ff"/>
    </linearGradient>
    <linearGradient id="linear-gradient-10" x1="0.5" x2="0.5" y2="1" gradientUnits="objectBoundingBox">
      <stop offset="0" stop-color="#d7f4ff"/>
      <stop offset="1" stop-color="#5ccdff"/>
    </linearGradient>
  </defs>
  <g id="蒙版组_6" data-name="蒙版组 6" transform="translate(318 -281)" clip-path="url(#clip-path)">
    <g id="组_53" data-name="组 53" transform="translate(-747.5 178.35)">
      <g id="编组" transform="translate(429.5 102.65)">
        <path id="路径" d="M1.171,97.221V25.906H0v-8.67H1.171V15H4.578V13.052H5.692V6.073L12.619,0l6.928,6.073v6.98h1.113V15h3.407v2.237h1.171v8.67H24.068V97.221l-11.449-.157Z" transform="translate(72.02)" fill="url(#linear-gradient)"/>
        <rect id="矩形" width="14.431" height="49.155" transform="translate(43.806 12.621)" fill="url(#linear-gradient)"/>
        <rect id="矩形备份_2" data-name="矩形备份 2" width="9.921" height="43.743" transform="translate(28.023 18.935)" fill="url(#linear-gradient)"/>
        <rect id="矩形备份_3" data-name="矩形备份 3" width="16.46" height="43.743" transform="translate(4.757 11.022)" fill="url(#linear-gradient)"/>
        <rect id="矩形备份_4" data-name="矩形备份 4" width="16.46" height="43.743" transform="translate(0 39.904)" opacity="0.6" fill="url(#linear-gradient)"/>
      </g>
      <path id="椭圆形" d="M3.479,6.959a3.48,3.48,0,1,1,3.48-3.48A3.484,3.484,0,0,1,3.479,6.959Zm0-5.212A1.732,1.732,0,1,0,5.212,3.479,1.734,1.734,0,0,0,3.479,1.747Z" transform="translate(509.532 171.013)" fill="url(#linear-gradient-6)"/>
      <ellipse id="椭圆形-2" data-name="椭圆形" cx="22.27" cy="4.568" rx="22.27" ry="4.568" transform="translate(458.961 193.515)" fill="#44c0ff" opacity="0.2"/>
      <g id="订单" transform="translate(459.959 127.286)" style="isolation: isolate">
        <rect id="矩形备份_8" data-name="矩形备份 8" width="34.941" height="41.756" rx="6.3" transform="translate(4.368 18.453)" opacity="0.3" fill="url(#linear-gradient-6)"/>
        <rect id="矩形-2" data-name="矩形" width="43.676" height="52.195" rx="2" transform="translate(0 3.839)" fill="url(#linear-gradient-6)"/>
        <rect id="矩形备份_5" data-name="矩形备份 5" width="36.745" height="45.931" rx="2" transform="translate(3.466 6.97)" fill="#fff"/>
        <path id="形状结合" d="M11.365,6.928a1,1,0,0,1-1-1V5.333a1,1,0,0,1,1-1h9.082a1,1,0,0,1,1,1v.595a1,1,0,0,1-1,1ZM1,6.928a1,1,0,0,1-1-1V1A1,1,0,0,1,1,0H5.928a1,1,0,0,1,1,1V5.928a1,1,0,0,1-1,1ZM11.365,2.595a1,1,0,0,1-1-1V1a1,1,0,0,1,1-1H26.9a1,1,0,0,1,1,1v.595a1,1,0,0,1-1,1Z" transform="translate(7.423 18.364)" fill="#44c0ff" opacity="0.4"/>
        <path id="形状" d="M20.15,6.928H11.662a1.3,1.3,0,0,1,0-2.595H20.15a1.3,1.3,0,0,1,0,2.595Zm-14.475,0H1.253A1.254,1.254,0,0,1,0,5.675V1.253A1.254,1.254,0,0,1,1.253,0H5.675A1.254,1.254,0,0,1,6.928,1.253V5.675A1.254,1.254,0,0,1,5.675,6.928Zm20.93-4.334H11.662a1.3,1.3,0,0,1,0-2.594H26.605a1.3,1.3,0,1,1,0,2.594Z" transform="translate(7.423 33.965)" fill="#44c0ff" opacity="0.4"/>
        <path id="路径-2" data-name="路径" d="M0,2.572V0A1.253,1.253,0,0,0,1.179,1.251l.074,0h34.24A1.253,1.253,0,0,0,36.743.074l0-.074V2.572a1.253,1.253,0,0,1-1.253,1.253H1.253A1.253,1.253,0,0,1,0,2.572v0Z" transform="translate(3.466 49.077)" fill="#0aa0ff" opacity="0.2"/>
        <rect id="矩形备份_6" data-name="矩形备份 6" width="11.098" height="6.681" rx="2.7" transform="translate(16.206)" fill="url(#linear-gradient-9)"/>
        <rect id="矩形-3" data-name="矩形" width="21.295" height="6.681" rx="1.8" transform="translate(11.107 2.795)" fill="url(#linear-gradient-10)"/>
      </g>
      <path id="路径-3" data-name="路径" d="M3.141,0a.7.7,0,0,1,.7.7V2.445h1.75a.7.7,0,0,1,0,1.392H3.837v1.75a.7.7,0,0,1-1.392,0V3.837H.7a.7.7,0,0,1,0-1.392H2.445V.7A.7.7,0,0,1,3.141,0Z" transform="translate(447.005 161.251)" fill="url(#linear-gradient-6)"/>
      <path id="路径备份" d="M1.839,0a.407.407,0,0,1,.407.407V1.431H3.271a.407.407,0,1,1,0,.815H2.246V3.271a.407.407,0,1,1-.815,0V2.246H.407a.407.407,0,0,1,0-.815H1.431V.407A.407.407,0,0,1,1.839,0Z" transform="translate(516.987 139.143) rotate(90)" fill="url(#linear-gradient-6)"/>
    </g>
  </g>
</svg>
