<svg xmlns="http://www.w3.org/2000/svg" xmlns:xlink="http://www.w3.org/1999/xlink" width="65.259" height="58" viewBox="0 0 65.259 58">
  <defs>
    <linearGradient id="linear-gradient" x1="1.071" y1="0.522" x2="0.019" y2="0.522" gradientUnits="objectBoundingBox">
      <stop offset="0" stop-color="#67d4ff"/>
      <stop offset="1" stop-color="#009aff"/>
    </linearGradient>
  </defs>
  <g id="组_50" data-name="组 50" transform="translate(-411.342 -378.952)">
    <rect id="矩形_5" data-name="矩形 5" width="32.773" height="4.699" transform="translate(427.928 430.53)" fill="#abd3fb"/>
    <rect id="矩形_6" data-name="矩形 6" width="32.773" height="4.699" transform="translate(427.928 381.442)" fill="#fff"/>
    <path id="路径_21" data-name="路径 21" d="M361.661,554.384" transform="translate(66.267 -172.942)" fill="#fff"/>
    <path id="路径_22" data-name="路径 22" d="M365.211,560.138H394.6v10.124L384.15,581.631v4.946l10.451,10.77v9.941H365.482v-9.972l10.212-10.18v-5.992L365.315,570.8Zm0,0" transform="translate(64.528 -175.761)" fill="url(#linear-gradient)"/>
    <path id="路径_23" data-name="路径 23" d="M363.32,607.346a1.676,1.676,0,0,1-1.676-1.676v-13.5l9.957-9.86a3.807,3.807,0,0,0,1.117-2.745,3.925,3.925,0,0,0-1.149-2.76l-9.917-9.86V552.681a1.676,1.676,0,1,1,3.351,0V565.55l8.935,8.879a7.24,7.24,0,0,1,2.13,5.122,7.157,7.157,0,0,1-2.106,5.13L365,593.568v12.1a1.675,1.675,0,0,1-1.676,1.676Zm29.431,0a1.675,1.675,0,0,1-1.675-1.676V593.56l-8.847-8.879a7.109,7.109,0,0,1-2.09-5.13,7.274,7.274,0,0,1,2.138-5.114l8.8-8.879V552.681a1.676,1.676,0,1,1,3.351,0v14.256l-9.781,9.861a3.933,3.933,0,0,0-1.156,2.776,3.805,3.805,0,0,0,1.116,2.744l9.821,9.869v13.491a1.679,1.679,0,0,1-1.676,1.667Zm0,0" transform="translate(66.275 -171.288)" fill="#abd3fb"/>
    <path id="路径_24" data-name="路径 24" d="M374.644,578.9l8.624,8.625L391.9,578.9Zm-1.787,32.654h20.918v4.851H372.857Zm0,0" transform="translate(60.783 -184.95)" fill="#fff"/>
    <path id="路径_25" data-name="路径 25" d="M392.737,595.707a1.675,1.675,0,0,1-1.676-1.676V576.465a1.675,1.675,0,1,1,3.351,0V594.04a1.673,1.673,0,0,1-1.675,1.667Zm-7.978,0a1.675,1.675,0,0,1-1.676-1.676V581.482a1.675,1.675,0,0,1,3.351,0v12.549a1.675,1.675,0,0,1-1.675,1.676Zm-7.819,0a1.675,1.675,0,0,1-1.675-1.676v-4.045a1.675,1.675,0,1,1,3.35,0v4.045a1.675,1.675,0,0,1-1.676,1.676Zm-46.112,11.018a1.675,1.675,0,0,1-1.676-1.675V587.482a1.676,1.676,0,1,1,3.351,0V605.05a1.676,1.676,0,0,1-1.675,1.675Zm7.9-5.018a1.675,1.675,0,0,1-1.676-1.676V587.482a1.676,1.676,0,1,1,3.351,0v12.549a1.675,1.675,0,0,1-1.676,1.676Zm7.818-8.513a1.676,1.676,0,0,1-1.675-1.675v-4.045a1.675,1.675,0,0,1,3.351,0v4.045a1.675,1.675,0,0,1-1.676,1.675Zm0,0" transform="translate(82.189 -182.936)" fill="#abd3fb"/>
    <path id="路径_26" data-name="路径 26" d="M393.232,552.856H353.486a1.676,1.676,0,0,1,0-3.351h39.746a1.676,1.676,0,0,1,0,3.351Zm0,0" transform="translate(71.091 -170.553)" fill="#abd3fb"/>
    <path id="路径_27" data-name="路径 27" d="M393.232,659.966H353.486a1.676,1.676,0,0,1,0-3.351h39.746a1.676,1.676,0,0,1,0,3.351Zm0,0" transform="translate(71.091 -223.014)" fill="#abd3fb"/>
  </g>
</svg>
